# xmcd
#
# Track frame offsets:
# 150
# 18900
# 29100
# 45525
# 61200
# 78750
# 95100
# 111450
# 123975
# 143925
# 160575
# 178650
#
# Disc length: 2910 seconds
#
#
# Revision: 0
# Processed by: cddbd v1.5.1PL0 Copyright (c) Steve Scherf et al.
# Submitted via: FreeRIP 2.91 
#
DISCID=9e0b5c0c
DTITLE=col finley - only the truth
DYEAR=2005
DGENRE=Country
TTITLE0=you can't handle the truth
TTITLE1=circle workin' gear jerkin'
TTITLE2=My place
TTITLE3=Hellbound train
TTITLE4=oh lord
TTITLE5=you are me
TTITLE6=Psycho cowboy
TTITLE7=lonesome and thensome
TTITLE8=L out of lover
TTITLE9=mexican lady
TTITLE10=Old man time
TTITLE11=sarah's tears
EXTD=
EXTT0=
EXTT1=
EXTT2=
EXTT3=
EXTT4=
EXTT5=
EXTT6=
EXTT7=
EXTT8=
EXTT9=
EXTT10=
EXTT11=
PLAYORDER=
